<svg width="63" height="64" viewBox="0 0 63 64" fill="none" xmlns="http://www.w3.org/2000/svg">
<path d="M31.5 0C48.897 0 63 14.1677 63 31.6445C63 49.1213 48.897 63.2891 31.5 63.2891C14.103 63.2891 5.13085e-07 49.1213 0 31.6445C0 14.1677 14.103 0 31.5 0ZM32.5381 11.6035C22.214 11.6036 13.812 20.0443 13.8076 30.4189C13.8062 33.7353 14.6685 36.9725 16.3076 39.8262L13.6504 49.5771L23.5801 46.9609C26.3157 48.4598 29.3957 49.2498 32.5303 49.251H32.5381C42.8653 49.2467 51.2652 40.8069 51.2695 30.4346C51.2715 25.4068 49.3245 20.6787 45.7881 17.1221C42.2517 13.5654 37.5487 11.6057 32.5381 11.6035Z" fill="#32C532"/>
<path d="M32.5459 14.782C36.704 14.7835 40.6125 16.4119 43.5518 19.3679C46.491 22.3241 48.109 26.2535 48.1074 30.4324C48.104 39.0559 41.1206 46.0727 32.54 46.073H32.5332C29.7396 46.0719 26.9997 45.3173 24.6094 43.8923L24.041 43.5535L18.1484 45.1062L19.7217 39.3347L19.3516 38.7429C17.7932 36.2529 16.9695 33.3749 16.9707 30.4197C16.9743 21.7968 23.9586 14.782 32.5459 14.782ZM25.9082 21.7292C25.5963 21.7292 25.0891 21.8467 24.6602 22.3171C24.2312 22.7879 23.0215 23.9259 23.0215 26.24C23.0216 28.5537 24.6981 30.7888 24.9326 31.1033C25.1666 31.4172 28.2328 36.1663 32.9277 38.2029C34.0442 38.6873 34.916 38.9765 35.5957 39.1931C36.7168 39.5511 37.7377 39.5008 38.5439 39.3796C39.4432 39.2447 41.3128 38.2424 41.7031 37.1443C42.0929 36.0458 42.0925 35.104 41.9756 34.908C41.8585 34.712 41.5468 34.5944 41.0791 34.3591C40.6111 34.1238 38.31 32.9859 37.8809 32.8289C37.4521 32.6721 37.14 32.5942 36.8281 33.0642C36.5162 33.5348 35.6188 34.5941 35.3457 34.908C35.0727 35.2216 34.7998 35.2615 34.332 35.0261C33.864 34.7908 32.356 34.294 30.5684 32.6921C29.1772 31.4456 28.238 29.9063 27.9648 29.4353C27.6918 28.9646 27.9356 28.7098 28.1699 28.4753C28.3804 28.2646 28.6382 27.9265 28.8721 27.6521C29.106 27.3777 29.1839 27.1813 29.3398 26.8679C29.4958 26.554 29.4178 26.2791 29.3008 26.0437C29.1835 25.8076 28.2474 23.4937 27.8574 22.5525C27.4775 21.6361 27.0919 21.7603 26.8047 21.7458C26.5321 21.7321 26.22 21.7293 25.9082 21.7292Z" fill="#32C532"/>
</svg>
