<svg width="63" height="109" viewBox="0 0 63 109" fill="none" xmlns="http://www.w3.org/2000/svg">
<path d="M30.2147 15.5V7.5M30.2147 15.5C33.048 16.6667 39.1146 19.7 40.7146 22.5M30.2147 15.5C23.4148 18.7 21.048 21.5 20.7146 22.5M30.2147 7.5C28.3813 6.53778 24.6146 4.20201 24.2146 2.55667M30.2147 7.5C31.8758 6.87111 35.6496 5.00201 37.4563 2.55667M24.2146 2.55667C26.431 1.8956 28.5139 1.57395 30.2147 1.5C32.2428 1.5 34.7807 1.8022 37.4563 2.55667M24.2146 2.55667C19.7296 3.89446 14.6986 6.62222 11.1846 11.5M37.4563 2.55667C41.6891 3.75027 46.2664 6.07583 49.7146 10.1276M40.7146 22.5C40.8813 24.6667 40.3146 30.1 36.7146 34.5M40.7146 22.5L46.7146 21M36.7146 34.5H24.2146M36.7146 34.5C37.7146 35.5 39.9146 38 40.7146 40M24.2146 34.5C22.8813 32.1667 20.3146 26.5 20.7146 22.5M24.2146 34.5C23.048 35.6667 20.7146 38.4 20.7146 40M20.7146 22.5L15.2146 21M46.7146 21C46.548 18.5662 46.9146 12.9844 49.7146 10.1276M46.7146 21C47.0344 22 49.1779 24.8 55.1943 28M49.7146 10.1276C52.8637 13.8279 55.0711 18.9678 55.2146 26C55.2286 26.6853 55.2215 27.3518 55.1943 28M55.1943 28C54.983 33.0326 53.563 36.9605 51.4485 40M40.7146 40C39.2146 41.5895 36.1146 45.6418 35.7146 49.1343M40.7146 40C43.3706 39.3333 49.2356 38.4 51.4485 40M51.4485 40C47.5072 45.6655 41.1526 48.2439 35.7146 49.1343M35.7146 49.1343C33.6989 49.4644 31.809 49.5625 30.2147 49.5C28.4986 49.5 26.4189 49.2837 24.2146 48.7584M20.7146 40C21.8813 42.0056 24.2146 46.5651 24.2146 48.7584M20.7146 40C18.5834 39.6667 13.5624 39.2 10.5279 40M24.2146 48.7584C19.4236 47.6165 14.0438 45.0147 10.5279 40M10.5279 40C8.39538 36.9585 6.9486 33.0293 6.73479 28M15.2146 21C14.8613 18.8333 13.5605 13.9 11.1846 11.5M15.2146 21C13.3947 23.3333 9.1509 28 6.73479 28M11.1846 11.5C8.60755 15.0771 6.8464 19.8105 6.71471 26C6.70013 26.6852 6.70723 27.3518 6.73479 28M6.70755 27.5L1.59961 28C1.26628 28.6667 1.60755 34.3 5.20755 41.5M54.7071 27.5L60.5979 28C60.9313 28.6667 59.8071 34.3 56.2071 41.5M7.2073 46C9.54064 50.8333 16.3798 61.3451 19.7073 68C23.2073 75 23.2073 81.5 23.2073 86.5M52.7073 46.5C50.374 51.3333 43.5348 61.8451 40.2073 68.5C36.7073 75.5 36.7073 81.5 36.7073 86.5M30.207 86.5V61.5M30.207 86.5H15.707L12.207 101.5M30.207 86.5H44.7073L48.2073 101.5M12.207 101.5H8.20696C7.54029 102.5 6.60696 105.1 8.20696 107.5H52.2073C52.7073 106.167 53.4073 103.1 52.2073 101.5H48.2073M12.207 101.5H48.2073M19.7073 92H40.7073L42.2073 96H18.2073L19.7073 92Z" stroke="black" stroke-width="3" stroke-linecap="round" stroke-linejoin="round"/>
</svg>
