<svg width="96" height="105" viewBox="0 0 96 105" fill="none" xmlns="http://www.w3.org/2000/svg">
<path d="M1.5 92.9995V100.5C1.66667 101.333 2.5 103 4.5 103H90.5C91.5 102.833 93.5 102.1 93.5 100.5V80.9995C93.8333 76.8329 87.2 66.6995 58 59.4995V51.9995M58 51.9995C61 50.1662 67 44.5995 67 36.9995C68.6667 36.8328 71.5 35.9995 71.5 33.4995V28.4995C71.5 28.3328 71.5 26.9995 70 26.9995M58 51.9995C50 57.1995 41 54.1662 37.5 51.9995M70 26.9995V20.9995M70 26.9995C49.2 17.7995 31.7794 23.3328 25.6127 26.9995M70 26.9995C69.8333 28.1662 68.7 30.6995 65.5 31.4995C59.5 29.4995 44 26.6995 30 31.4995C28.8333 31.4995 26.4127 30.9994 25.6127 26.9995M25.6127 26.9995C24.1127 26.9995 24.0117 28.3328 24.0117 28.4995V33.4995C24.0117 35.9995 26.8451 36.8328 28.5117 36.9995C28.5117 44.5995 34.5117 50.1662 37.5117 51.9995V59.4995C8.31172 66.6995 1.5 76.4995 1.5 80.9995V86.9995M25.6127 26.9995L25.5117 10.9995C26.0078 7.66618 41.5 1.49951 47.5 1.5C53.5 1.50049 69 7.66618 70 10.9995V14.9995M35.5355 59.9995L47.5 72.9995M47.5 72.9995L60 59.9995M47.5 72.9995C50 74.1662 55.4 76.3995 57 75.9995C58.6 75.5995 66.1128 67.1639 69.4462 62.8305M47.5 72.9995C45 74.1662 39.6 76.3995 38 75.9995C36.4 75.5995 29.3333 67.1639 26 62.8305M42.5 75.4995L47.5 82.4995M47.5 82.4995L53.5 75.4995M47.5 82.4995C45.8333 82.4995 42.5 83.5995 42.5 87.9995V97.4995H48.5V92.4995C52.5 92.4995 56 84.9995 49.5 82.4995H47.5ZM80.5 84.9995V103H14.5V84.9995M94.5 57.4996H80.0004C79.5004 55.6662 79.1004 51.5996 81.5004 49.9996C84.5004 47.9996 94.5 41.9996 94.5 36.4996C94.5 32.0996 91.1667 30.6662 89 30.4995C86.8333 30.3328 82.0004 31.6996 80.0004 36.4996" stroke="black" stroke-width="3" stroke-linecap="round" stroke-linejoin="round"/>
</svg>
