<svg width="107" height="106" viewBox="0 0 107 106" fill="none" xmlns="http://www.w3.org/2000/svg">
<path d="M80.0074 38V36.5H79.9748L79.9422 36.5014L80.0074 38ZM87.249 39.0567L87.6561 37.613L87.249 39.0567ZM105.007 62.5L106.507 62.4694L105.007 62.5ZM104.987 64.5L106.486 64.5629L104.987 64.5ZM80.0074 86L80.0662 84.5012L80.0368 84.5H80.0074V86ZM85.5073 85.6343L85.7497 87.1146L85.5073 85.6343ZM74.0073 85.2584L73.6596 86.7175L74.0073 85.2584ZM60.3206 76.5L59.0924 77.3611L60.3206 76.5ZM60.9772 48L59.7602 47.1232L60.9772 48ZM56.5074 62.5L58.0071 62.5319L56.5074 62.5ZM34 1.5V0C33.3563 0 32.7843 0.410727 32.5786 1.0207L34 1.5ZM75.5 1.5L76.7713 2.29607C77.0608 1.83371 77.0765 1.25064 76.8123 0.773398C76.548 0.296158 76.0455 0 75.5 0V1.5ZM23 56L22.063 57.1713L22.0949 57.1968L22.1281 57.2206L23 56ZM21 46L22.4971 46.0936C22.5239 45.664 22.365 45.2437 22.0607 44.9393L21 46ZM52.2867 39.5L53.5779 40.2634L52.2867 39.5ZM35.8947 32.0529C35.0954 31.8349 34.2708 32.3061 34.0529 33.1053C33.8349 33.9046 34.3061 34.7292 35.1053 34.9471L35.5 33.5L35.8947 32.0529ZM65.5 96.5L66.9808 96.2604L66.9057 95.7963L66.5791 95.4581L65.5 96.5ZM59.5 102.5L59.8054 101.031C59.3502 100.937 58.8768 101.059 58.5238 101.361L59.5 102.5ZM53.5 99.5L54.8416 100.171C55.2121 99.4299 54.9118 98.5288 54.1708 98.1584L53.5 99.5ZM52.5 99L53.1708 97.6584C52.5933 97.3696 51.8959 97.4828 51.4393 97.9393L52.5 99ZM46 96.5L47.2862 97.2717C47.5012 96.9135 47.557 96.4818 47.4402 96.0806C47.3234 95.6795 47.0445 95.3452 46.6708 95.1584L46 96.5ZM44 95.5L44.6708 94.1584C44.0224 93.8342 43.235 94.0201 42.8 94.6L44 95.5ZM37.5 92L38.8787 92.5909C39.1539 91.9489 38.9495 91.2019 38.3858 90.7895L37.5 92ZM17 77L17.8858 75.7895C17.3237 75.3782 16.5526 75.4079 16.0238 75.8611L17 77ZM11.5 73L12.8416 73.6708C13.1495 73.0552 12.9988 72.3091 12.4762 71.8611L11.5 73ZM7.99999 70L8.97617 68.8611C8.6444 68.5767 8.20512 68.4512 7.77318 68.5173C7.34124 68.5833 6.95958 68.8345 6.72799 69.205L7.99999 70ZM3.49999 67L4.56065 68.0607C5.1011 67.5202 5.14876 66.6598 4.67129 66.063L3.49999 67ZM1.5 64.5L0.11855 63.9155C-0.0960701 64.4228 -0.015396 65.0069 0.328693 65.437L1.5 64.5ZM33.4429 84.8927C34.2121 85.2004 35.085 84.8263 35.3927 84.0571C35.7004 83.2879 35.3263 82.415 34.5571 82.1073L34 83.5L33.4429 84.8927ZM38.3126 84.7391C37.6162 84.2904 36.6879 84.4911 36.2391 85.1874C35.7904 85.8838 35.9911 86.8121 36.6874 87.2609L37.5 86L38.3126 84.7391ZM39.2121 64.5151C38.392 64.3979 37.6322 64.9678 37.5151 65.7879C37.3979 66.608 37.9678 67.3678 38.7879 67.4849L39 66L39.2121 64.5151ZM41.8638 69.0448C41.0601 68.8439 40.2457 69.3325 40.0448 70.1362C39.8439 70.9399 40.3325 71.7543 41.1362 71.9552L41.5 70.5L41.8638 69.0448ZM45.5909 74.1213C44.8294 73.795 43.9476 74.1477 43.6213 74.9091C43.2949 75.6706 43.6477 76.5524 44.4091 76.8787L45 75.5L45.5909 74.1213ZM48.4743 79.077C47.6884 78.815 46.8389 79.2397 46.577 80.0257C46.315 80.8116 46.7397 81.6611 47.5257 81.923L48 80.5L48.4743 79.077ZM28 73L27.691 74.4678L27.7391 74.478L27.7878 74.4849L28 73ZM28.8908 32.8707C29.6478 33.2072 30.5343 32.8662 30.8707 32.1092C31.2072 31.3522 30.8662 30.4657 30.1092 30.1293L29.5 31.5L28.8908 32.8707ZM80.0074 52H81.5074V44H80.0074H78.5074V52H80.0074ZM80.0074 38L79.9422 36.5014C78.1138 36.5809 75.9088 36.9242 73.5786 37.6193L74.0073 39.0567L74.4361 40.4941C76.5385 39.867 78.4995 39.567 80.0726 39.4986L80.0074 38ZM80.0074 44L80.7045 42.6718C79.8385 42.2173 78.5089 41.4334 77.3662 40.5818C76.7937 40.1551 76.3035 39.7375 75.9481 39.3598C75.7715 39.1722 75.6459 39.0131 75.5631 38.8854C75.4773 38.7533 75.4628 38.6939 75.4649 38.7023L74.0073 39.0567L72.5498 39.411C72.7439 40.2095 73.2758 40.8978 73.7635 41.4159C74.2841 41.9691 74.9252 42.504 75.5735 42.9872C76.8725 43.9553 78.343 44.8205 79.3103 45.3282L80.0074 44ZM87.249 39.0567L87.6561 37.613C84.8493 36.8215 82.1744 36.5 80.0074 36.5V38V39.5C81.8966 39.5 84.2975 39.7829 86.8419 40.5004L87.249 39.0567ZM80.0074 44L80.5385 45.4028C81.4551 45.0558 82.9006 44.3894 84.3626 43.4852C85.8067 42.5921 87.3871 41.3939 88.4554 39.948L87.249 39.0567L86.0425 38.1653C85.3041 39.1647 84.0943 40.1238 82.7846 40.9338C81.4927 41.7327 80.2208 42.3153 79.4763 42.5972L80.0074 44ZM80.0074 52L79.4363 53.387C80.7955 53.9467 82.9495 54.9633 84.9428 56.1705C85.9388 56.7737 86.869 57.4091 87.6315 58.0427C88.4101 58.6897 88.9337 59.2695 89.205 59.7442L90.5073 59L91.8097 58.2558C91.281 57.3305 90.4462 56.4811 89.5488 55.7354C88.6353 54.9763 87.5718 54.2554 86.4969 53.6045C84.3486 52.3034 82.0526 51.22 80.5785 50.613L80.0074 52ZM90.5073 59L89.0118 59.115C89.1573 61.0069 88.6401 66.0245 85.3464 70.0501L86.5073 71L87.6683 71.9499C91.5746 67.1755 92.1907 61.3265 92.0029 58.885L90.5073 59ZM86.5073 71V69.5H74.0073V71V72.5H86.5073V71ZM74.0073 71L75.3097 70.2558C74.6855 69.1634 73.7511 67.2492 73.026 65.1378C72.2891 62.9917 71.8325 60.823 71.9999 59.1493L70.5073 59L69.0148 58.8507C68.7822 61.177 69.409 63.8416 70.1887 66.1122C70.9803 68.4175 71.9958 70.5032 72.705 71.7442L74.0073 71ZM70.5073 59L71.9303 59.4744C71.9295 59.477 72.009 59.2806 72.3317 58.8907C72.635 58.5242 73.1038 58.0463 73.7876 57.4816C75.1544 56.3528 77.3337 54.916 80.6461 53.3572L80.0074 52L79.3687 50.6428C75.8811 52.284 73.4771 53.8472 71.8773 55.1684C71.0777 55.8287 70.4672 56.4383 70.0206 56.978C69.5932 57.4944 69.2519 58.023 69.0843 58.5256L70.5073 59ZM90.5073 59L90.8711 60.4552L96.8711 58.9552L96.5073 57.5L96.1435 56.0448L90.1435 57.5448L90.5073 59ZM105.007 62.5L106.507 62.4694C106.357 55.1156 104.038 49.6368 100.65 45.6555L99.5073 46.6276L98.365 47.5998C101.275 51.019 103.371 55.8199 103.508 62.5306L105.007 62.5ZM99.5073 46.6276L100.65 45.6555C96.9593 41.3191 92.0922 38.8639 87.6561 37.613L87.249 39.0567L86.8419 40.5004C90.8714 41.6366 95.1589 43.8325 98.365 47.5998L99.5073 46.6276ZM104.987 64.5L106.486 64.5629C106.514 63.8827 106.522 63.185 106.507 62.4694L105.007 62.5L103.508 62.5306C103.521 63.1856 103.514 63.8209 103.488 64.4371L104.987 64.5ZM86.5073 71L85.4467 72.0607C85.9048 72.5188 86.6626 73.3467 87.3967 74.2939C88.1457 75.2603 88.7932 76.2535 89.1146 77.0571L90.5073 76.5L91.9001 75.9429C91.4215 74.7465 90.569 73.4897 89.768 72.4561C88.952 71.4033 88.1099 70.4812 87.568 69.9393L86.5073 71ZM101.241 76.5L102.473 77.3566C104.763 74.0644 106.263 69.8561 106.486 64.5629L104.987 64.5L103.488 64.4371C103.288 69.209 101.949 72.8567 100.01 75.6434L101.241 76.5ZM80.0074 86L79.9486 87.4988C81.646 87.5654 83.6367 87.4606 85.7497 87.1146L85.5073 85.6343L85.265 84.154C83.3464 84.4682 81.5575 84.5596 80.0662 84.5012L80.0074 86ZM85.5073 85.6343L85.7497 87.1146C91.4132 86.1872 98.2147 83.4771 102.473 77.3566L101.241 76.5L100.01 75.6434C96.385 80.854 90.4775 83.3005 85.265 84.154L85.5073 85.6343ZM90.5073 76.5L89.4164 75.4705C88.6009 76.3347 87.3868 77.8263 86.3167 79.5684C85.2618 81.2858 84.254 83.3947 84.0171 85.4636L85.5073 85.6343L86.9976 85.805C87.1606 84.3814 87.9029 82.7179 88.873 81.1386C89.8278 79.5841 90.9138 78.2549 91.5983 77.5295L90.5073 76.5ZM74.0073 71L72.9467 69.9393C72.3173 70.5687 71.384 71.608 70.5959 72.7203C70.2018 73.2766 69.8218 73.8821 69.535 74.4867C69.2603 75.0657 69.0073 75.7739 69.0073 76.5H70.5073H72.0073C72.0073 76.4261 72.0461 76.1926 72.2454 75.7727C72.4325 75.3783 72.7087 74.9276 73.0438 74.4547C73.714 73.5087 74.5307 72.5979 75.068 72.0607L74.0073 71ZM74.0073 85.2584L73.6596 86.7175C75.9758 87.2695 78.1721 87.5 80.0074 87.5V86V84.5C78.4104 84.5 76.4475 84.2979 74.3551 83.7992L74.0073 85.2584ZM70.5073 76.5L69.2108 77.2542C69.7712 78.2177 70.6188 79.8077 71.3209 81.4106C71.6718 82.2119 71.9766 82.9942 72.1913 83.6893C72.4133 84.4081 72.5073 84.9347 72.5073 85.2584H74.0073H75.5073C75.5073 84.4854 75.3097 83.6196 75.0577 82.8039C74.7984 81.9645 74.447 81.0704 74.0688 80.207C73.3126 78.4804 72.4101 76.7879 71.8039 75.7458L70.5073 76.5ZM60.3206 76.5L59.0924 77.3611C62.8859 82.7717 68.6448 85.5223 73.6596 86.7175L74.0073 85.2584L74.3551 83.7992C69.7878 82.7107 64.7871 80.2576 61.5488 75.6389L60.3206 76.5ZM70.5073 59L70.902 57.5529L65.402 56.0529L65.0073 57.5L64.6127 58.9471L70.1127 60.4471L70.5073 59ZM74.0073 39.0567L73.5786 37.6193C68.872 39.0231 63.5192 41.9054 59.7602 47.1232L60.9772 48L62.1943 48.8768C65.4633 44.3391 70.1726 41.7658 74.4361 40.4941L74.0073 39.0567ZM60.9772 48L59.7602 47.1232C56.9942 50.9627 55.1455 55.9951 55.0077 62.4681L56.5074 62.5L58.0071 62.5319C58.1327 56.626 59.8063 52.1915 62.1943 48.8768L60.9772 48ZM56.5074 62.5L55.0077 62.4681C54.9925 63.1844 54.9999 63.8828 55.0288 64.5637L56.5275 64.5L58.0261 64.4363C58 63.8207 57.9931 63.1861 58.0071 62.5319L56.5074 62.5ZM56.5275 64.5L55.0288 64.5637C55.254 69.8598 56.7846 74.0696 59.0924 77.3611L60.3206 76.5L61.5488 75.6389C59.5915 72.8473 58.2286 69.1989 58.0261 64.4363L56.5275 64.5ZM96.5073 57.5L98.0038 57.3975C97.9288 56.3018 97.9733 54.4344 98.3644 52.5231C98.7614 50.583 99.4735 48.8051 100.579 47.6776L99.5073 46.6276L98.4361 45.5777C96.7412 47.3069 95.87 49.7484 95.4253 51.9218C94.9747 54.124 94.9192 56.2644 95.0108 57.6025L96.5073 57.5ZM96.5073 57.5L95.0786 57.9568C95.3585 58.8322 96.2073 59.9984 97.5938 61.2775C99.0324 62.6046 101.183 64.1755 104.283 65.8243L104.987 64.5L105.691 63.1757C102.775 61.6245 100.845 60.1954 99.628 59.0725C99.019 58.5107 98.5973 58.0337 98.321 57.6655C98.183 57.4816 98.0865 57.3316 98.0224 57.2182C97.9555 57.1 97.936 57.0429 97.9361 57.0432L96.5073 57.5ZM90.5073 76.5L90.8725 77.9549C92.1303 77.6392 94.1647 77.2578 96.1246 77.1476C97.1044 77.0925 98.0226 77.1079 98.7948 77.2166C99.5925 77.3289 100.095 77.5223 100.362 77.7155L101.241 76.5L102.12 75.2845C101.281 74.6777 100.22 74.3877 99.2131 74.2459C98.1803 74.1005 97.0513 74.0908 95.9562 74.1524C93.7664 74.2755 91.5403 74.6942 90.1422 75.0451L90.5073 76.5ZM70.5073 76.5L70.7391 75.018C69.6167 74.8425 67.7665 74.6361 65.7987 74.5757C63.8593 74.5162 61.6699 74.593 59.9382 75.0496L60.3206 76.5L60.703 77.9504C62.0057 77.607 63.8441 77.5171 65.7067 77.5743C67.5409 77.6306 69.2668 77.8242 70.2756 77.982L70.5073 76.5ZM65.0073 57.5L66.4878 57.2585C66.2969 56.0882 65.8602 54.2193 65.1578 52.3178C64.4671 50.4476 63.4578 48.3735 62.0432 46.9447L60.9772 48L59.9113 49.0553C60.8727 50.0265 61.7017 51.6191 62.3437 53.3572C62.974 55.064 63.3644 56.7451 63.5269 57.7415L65.0073 57.5ZM65.0073 57.5L63.8246 56.5775C62.9514 57.697 61.4912 59.3812 59.9772 60.7694C59.2189 61.4647 58.4824 62.0531 57.8266 62.4588C57.1291 62.8903 56.7051 63 56.5275 63V64.5V66C57.5579 66 58.5704 65.5263 59.405 65.01C60.2814 64.4678 61.1726 63.7436 62.0047 62.9806C63.6717 61.4521 65.2434 59.6363 66.1901 58.4225L65.0073 57.5ZM34 1.5V3H75.5V1.5V0H34V1.5ZM41.5 59.5L41.5998 58.0033C39.1334 57.8389 35.2556 57.4682 31.6617 56.8938C29.8635 56.6064 28.1632 56.2722 26.7575 55.895C25.3001 55.5039 24.3355 55.1106 23.8719 54.7794L23 56L22.1281 57.2206C23.0645 57.8894 24.4874 58.3919 25.98 58.7925C27.5243 59.2069 29.3365 59.5603 31.1883 59.8562C34.8944 60.4485 38.8666 60.8278 41.4002 60.9967L41.5 59.5ZM23 56L23.937 54.8287C23.9376 54.8291 23.7978 54.7038 23.594 54.3334C23.401 53.9825 23.1804 53.465 22.9835 52.7512C22.5901 51.3247 22.3053 49.162 22.4971 46.0936L21 46L19.5029 45.9064C19.2947 49.238 19.5932 51.742 20.0915 53.5488C20.5713 55.2889 21.2848 56.5488 22.063 57.1713L23 56ZM21 46L22.0607 44.9393L20.5607 43.4393L19.5 44.5L18.4393 45.5607L19.9393 47.0607L21 46ZM19.5 44.5L20.9214 44.9793L28.1714 23.4793L26.75 23L25.3286 22.5207L18.0786 44.0207L19.5 44.5ZM26.75 23L28.1714 23.4793L35.4214 1.9793L34 1.5L32.5786 1.0207L25.3286 22.5207L26.75 23ZM75.5 1.5L74.2287 0.703934C69.2378 8.67439 61.9979 20.3844 55.4765 31.2269L56.7619 32L58.0473 32.7731C64.5571 21.95 71.7872 10.2558 76.7713 2.29607L75.5 1.5ZM26.75 23L26.3191 24.4368L56.331 33.4368L56.7619 32L57.1928 30.5632L27.1809 21.5632L26.75 23ZM56.7619 32L55.4765 31.2269C53.9295 33.7989 52.4226 36.3227 50.9954 38.7366L52.2867 39.5L53.5779 40.2634C55.0005 37.8571 56.5035 35.3399 58.0473 32.7731L56.7619 32ZM52.2867 39.5L50.9954 38.7366C47.9835 43.8311 45.3212 48.446 43.3867 51.9952C42.4204 53.768 41.6268 55.291 41.0601 56.4826C40.7772 57.0774 40.5424 57.607 40.3693 58.0538C40.2103 58.4642 40.0547 58.9247 40.0092 59.3344L41.5 59.5L42.9908 59.6656C42.99 59.6726 43.017 59.5242 43.1668 59.1375C43.3024 58.7873 43.5026 58.3317 43.7692 57.7712C44.3014 56.6523 45.065 55.1845 46.0208 53.431C47.9303 49.9277 50.5719 45.3479 53.5779 40.2634L52.2867 39.5ZM52.2867 39.5L52.8422 38.1067C49.0924 36.6116 40.39 33.2789 35.8947 32.0529L35.5 33.5L35.1053 34.9471C39.41 36.1211 47.9564 39.3884 51.7311 40.8933L52.2867 39.5ZM41.5 59.5L40.1293 60.1092C43.4913 67.6739 53.0432 85.7578 64.4209 97.5419L65.5 96.5L66.5791 95.4581C55.5568 84.0422 46.1753 66.3261 42.8707 58.8908L41.5 59.5ZM65.5 96.5L64.0193 96.7396C64.1931 97.814 64.101 99.1935 63.5408 100.097C63.2864 100.508 62.9363 100.824 62.4213 101.009C61.8856 101.201 61.0583 101.292 59.8054 101.031L59.5 102.5L59.1946 103.969C60.827 104.308 62.2429 104.261 63.4365 103.832C64.6506 103.395 65.5158 102.605 66.0905 101.678C67.1888 99.9065 67.2114 97.686 66.9808 96.2604L65.5 96.5ZM59.5 102.5L58.5238 101.361C58.0301 101.784 57.1988 102.354 56.3691 102.677C55.4641 103.029 55.0503 102.913 54.9 102.8L54 104L53.1 105.2C54.5497 106.287 56.3026 105.921 57.4559 105.473C58.6846 104.996 59.8032 104.216 60.4762 103.639L59.5 102.5ZM54 104L54.9 102.8C54.6067 102.58 54.4543 102.245 54.4623 101.697C54.4708 101.121 54.6679 100.518 54.8416 100.171L53.5 99.5L52.1584 98.8292C51.8321 99.4818 51.4792 100.529 51.4627 101.653C51.4457 102.805 51.7933 104.22 53.1 105.2L54 104ZM53.5 99.5L54.1708 98.1584L53.1708 97.6584L52.5 99L51.8292 100.342L52.8292 100.842L53.5 99.5ZM52.5 99L51.4393 97.9393C50.8469 98.5318 49.8862 99.3075 48.9613 99.7428C47.9303 100.228 47.6332 100.012 47.5607 99.9393L46.5 101L45.4393 102.061C46.9668 103.588 49.003 103.039 50.2387 102.457C51.5805 101.826 52.8198 100.802 53.5607 100.061L52.5 99ZM46.5 101L47.5607 99.9393C47.0896 99.4682 46.955 98.964 46.9623 98.4853C46.9703 97.9603 47.1548 97.4908 47.2862 97.2717L46 96.5L44.7138 95.7283C44.0547 96.8267 43.1281 99.7494 45.4393 102.061L46.5 101ZM46 96.5L46.6708 95.1584L44.6708 94.1584L44 95.5L43.3292 96.8416L45.3292 97.8416L46 96.5ZM44 95.5L42.8 94.6C42.3828 95.1563 41.6644 95.879 40.9191 96.2765C40.2014 96.6593 39.7839 96.6062 39.437 96.3287L38.5 97.5L37.563 98.6713C39.2161 99.9938 41.0487 99.6074 42.3309 98.9235C43.5856 98.2544 44.6172 97.177 45.2 96.4L44 95.5ZM38.5 97.5L39.437 96.3287C38.8524 95.861 38.6039 95.2241 38.5597 94.4966C38.5136 93.7373 38.7052 92.9956 38.8787 92.5909L37.5 92L36.1213 91.4091C35.7948 92.171 35.4864 93.3793 35.5653 94.6784C35.6461 96.0093 36.1476 97.539 37.563 98.6713L38.5 97.5ZM37.5 92L38.3858 90.7895L17.8858 75.7895L17 77L16.1142 78.2105L36.6142 93.2105L37.5 92ZM17 77L16.0238 75.8611C15.5301 76.2843 14.6988 76.8544 13.8691 77.1769C12.9641 77.5286 12.5503 77.4127 12.4 77.3L11.5 78.5L10.6 79.7C12.0497 80.7873 13.8026 80.4214 14.9559 79.9731C16.1846 79.4956 17.3032 78.7157 17.9762 78.1389L17 77ZM11.5 78.5L12.4 77.3C12.2546 77.1909 12.0418 76.8638 12.141 75.9644C12.233 75.1299 12.563 74.2281 12.8416 73.6708L11.5 73L10.1584 72.3292C9.77033 73.1052 9.30038 74.3535 9.15904 75.6356C9.02485 76.8529 9.14543 78.6091 10.6 79.7L11.5 78.5ZM11.5 73L12.4762 71.8611L8.97617 68.8611L7.99999 70L7.0238 71.1389L10.5238 74.1389L11.5 73ZM7.99999 70L6.72799 69.205C6.38674 69.751 5.79153 70.4412 5.17015 70.8111C4.87312 70.988 4.64419 71.0475 4.48267 71.0502C4.3524 71.0524 4.17867 71.022 3.93703 70.8287L2.99999 72L2.06294 73.1713C2.8213 73.778 3.6684 74.0643 4.53292 74.0498C5.3662 74.0358 6.10602 73.7454 6.70482 73.3889C7.87511 72.6921 8.7799 71.5823 9.27198 70.795L7.99999 70ZM2.99999 72L3.93703 70.8287C3.66493 70.611 3.57768 70.4267 3.54244 70.2955C3.50231 70.146 3.49864 69.9416 3.57303 69.6664C3.73254 69.0762 4.17528 68.446 4.56065 68.0607L3.49999 67L2.43932 65.9393C1.82469 66.554 1.01743 67.6238 0.67694 68.8836C0.50133 69.5334 0.435158 70.2915 0.64503 71.0733C0.859795 71.8733 1.33504 72.589 2.06294 73.1713L2.99999 72ZM3.49999 67L4.67129 66.063L2.67131 63.563L1.5 64.5L0.328693 65.437L2.32868 67.937L3.49999 67ZM1.5 64.5L2.88145 65.0845C3.2806 64.141 3.91673 62.8694 4.78955 61.4003L3.49999 60.6342L2.21042 59.868C1.28131 61.4318 0.579807 62.8253 0.11855 63.9155L1.5 64.5ZM3.49999 60.6342L4.78955 61.4003C7.6505 56.5849 12.8905 49.9205 20.2329 45.8088L19.5 44.5L18.7671 43.1912C10.8026 47.6513 5.22654 54.7914 2.21042 59.868L3.49999 60.6342ZM3.49999 60.6342L2.51949 61.7693C6.36749 65.093 12.5133 70.2269 18.4557 74.8356C21.4263 77.1394 24.3584 79.3217 26.9343 81.0839C29.4786 82.8246 31.775 84.2255 33.4429 84.8927L34 83.5L34.5571 82.1073C33.225 81.5745 31.1672 80.345 28.6282 78.6079C26.1207 76.8925 23.2404 74.7499 20.2943 72.465C14.4033 67.8962 8.29915 62.7973 4.48048 59.499L3.49999 60.6342ZM37.5 86L36.6874 87.2609C40.4634 89.6942 46.4045 93.2947 51.9696 96.1929C54.7491 97.6404 57.4676 98.93 59.7921 99.8105C60.9536 100.251 62.0473 100.6 63.0205 100.813C63.9642 101.02 64.9272 101.129 65.7683 100.976L65.5 99.5L65.2317 98.0242C64.9728 98.0713 64.4702 98.0595 63.6619 97.8825C62.8831 97.7121 61.9386 97.4156 60.8548 97.0051C58.6887 96.1845 56.0884 94.9554 53.3554 93.5321C47.8955 90.6887 42.0366 87.1391 38.3126 84.7391L37.5 86ZM14 69.5L15.2929 70.2605C17.2461 66.9401 18.9945 58.592 12.1713 50.063L11 51L9.8287 51.937C15.8055 59.408 14.0873 66.3932 12.7071 68.7395L14 69.5ZM39 66L38.7879 67.4849C39.4892 67.5851 40.5947 67.6394 41.7624 67.5023C42.9056 67.368 44.2938 67.0296 45.4 66.2L44.5 65L43.6 63.8C43.1062 64.1704 42.3277 64.4153 41.4126 64.5227C40.522 64.6273 39.6774 64.5815 39.2121 64.5151L39 66ZM41.5 70.5L41.1362 71.9552C41.9013 72.1465 43.1086 72.3439 44.3236 72.3248C45.4437 72.3072 47.018 72.1033 48.0607 71.0607L47 70L45.9393 68.9393C45.782 69.0967 45.2729 69.3095 44.2764 69.3252C43.3748 69.3394 42.432 69.1868 41.8638 69.0448L41.5 70.5ZM45 75.5L44.4091 76.8787C45.1012 77.1753 46.2056 77.5262 47.3505 77.6312C48.4216 77.7295 49.9704 77.6509 51.0607 76.5607L50 75.5L48.9393 74.4393C48.8296 74.5491 48.4617 74.7205 47.6245 74.6438C46.8611 74.5738 46.0654 74.3247 45.5909 74.1213L45 75.5ZM48 80.5L47.5257 81.923C48.1388 82.1274 49.1164 82.3549 50.1806 82.422C51.2202 82.4876 52.5285 82.4128 53.6708 81.8416L53 80.5L52.3292 79.1584C51.8715 79.3872 51.1798 79.4791 50.3694 79.428C49.5836 79.3784 48.8612 79.2059 48.4743 79.077L48 80.5ZM28 61.5V60C24.3955 60 21.5095 63.0276 20.9015 66.2193C20.5838 67.8871 20.8567 69.703 22.0168 71.2568C23.1688 72.7996 25.0681 73.9156 27.691 74.4678L28 73L28.309 71.5322C26.1819 71.0844 25.0187 70.2629 24.4207 69.4619C23.8308 68.672 23.6662 67.7379 23.8485 66.7807C24.2406 64.7224 26.1045 63 28 63V61.5ZM28 73L27.7878 74.4849C32.3778 75.1406 35.4202 71.3571 35.8634 67.8111C36.093 65.9742 35.683 63.9877 34.3301 62.4476C32.9623 60.8904 30.8176 60 28 60V61.5V63C30.1823 63 31.4127 63.6721 32.0762 64.4274C32.7546 65.1998 33.032 66.2758 32.8866 67.4389C32.5799 69.8929 30.6222 71.8594 28.2121 71.5151L28 73ZM29.5 31.5L30.1092 30.1293L25.6092 28.1293L25 29.5L24.3908 30.8707L28.8908 32.8707L29.5 31.5ZM46 49.5001L46.3638 48.0449C44.4318 47.5618 41.4308 47.4787 38.5393 48.7675C35.5748 50.0889 32.8653 52.793 31.5529 57.6054L33 58.0001L34.4471 58.3947C35.5347 54.4071 37.6585 52.4446 39.7607 51.5076C41.9359 50.5381 44.2349 50.605 45.6362 50.9553L46 49.5001Z" fill="black"/>
</svg>
