<svg width="75" height="103" viewBox="0 0 75 103" fill="none" xmlns="http://www.w3.org/2000/svg">
<mask id="path-1-inside-1_51_35" fill="white">
<path d="M0 103V11H6H19V5.5H31C31.4 5.5 31.1667 1.83333 31 0H43C42.6 0 42.8333 3.66667 43 5.5H55V11H68H74.5V103H0Z"/>
</mask>
<path d="M56.5 11C56.5 10.1716 55.8284 9.5 55 9.5C54.1716 9.5 53.5 10.1716 53.5 11H55H56.5ZM55 15.5V17C55.8284 17 56.5 16.3284 56.5 15.5H55ZM19 15.5H17.5C17.5 16.3284 18.1716 17 19 17V15.5ZM20.5 11C20.5 10.1716 19.8284 9.5 19 9.5C18.1716 9.5 17.5 10.1716 17.5 11H19H20.5ZM7.5 11C7.5 10.1716 6.82843 9.5 6 9.5C5.17157 9.5 4.5 10.1716 4.5 11H6H7.5ZM4.5 22.5C4.5 23.3284 5.17157 24 6 24C6.82843 24 7.5 23.3284 7.5 22.5H6H4.5ZM69.5 11C69.5 10.1716 68.8284 9.5 68 9.5C67.1716 9.5 66.5 10.1716 66.5 11H68H69.5ZM66.5 76C66.5 76.8284 67.1716 77.5 68 77.5C68.8284 77.5 69.5 76.8284 69.5 76H68H66.5ZM69.5 81.5C69.5 80.6716 68.8284 80 68 80C67.1716 80 66.5 80.6716 66.5 81.5H68H69.5ZM68 92.5V94C68.8284 94 69.5 93.3284 69.5 92.5H68ZM6 92.5H4.5C4.5 93.3284 5.17157 94 6 94V92.5ZM7.5 28C7.5 27.1716 6.82843 26.5 6 26.5C5.17157 26.5 4.5 27.1716 4.5 28H6H7.5ZM12.4179 43.4612C11.8442 44.0588 11.8636 45.0084 12.4612 45.5821C13.0588 46.1558 14.0084 46.1364 14.5821 45.5388L13.5 44.5L12.4179 43.4612ZM26.5821 33.0388C27.1558 32.4412 27.1364 31.4916 26.5388 30.9179C25.9412 30.3442 24.9916 30.3636 24.4179 30.9612L25.5 32L26.5821 33.0388ZM14.5821 30.9612C14.0084 30.3636 13.0588 30.3442 12.4612 30.9179C11.8636 31.4916 11.8442 32.4412 12.4179 33.0388L13.5 32L14.5821 30.9612ZM24.4179 45.5388C24.9916 46.1364 25.9412 46.1558 26.5388 45.5821C27.1364 45.0084 27.1558 44.0588 26.5821 43.4612L25.5 44.5L24.4179 45.5388ZM13.2471 74.5215C12.4305 74.6611 11.8818 75.4363 12.0215 76.2529C12.1611 77.0695 12.9363 77.6182 13.7529 77.4785L13.5 76L13.2471 74.5215ZM49.5 26.5L50.6474 25.5338C50.3624 25.1953 49.9425 25 49.5 25C49.0575 25 48.6376 25.1953 48.3526 25.5338L49.5 26.5ZM40.3526 35.0338C39.819 35.6675 39.9001 36.6137 40.5338 37.1474C41.1675 37.681 42.1137 37.5999 42.6474 36.9662L41.5 36L40.3526 35.0338ZM56.3526 36.9662C56.8863 37.5999 57.8325 37.681 58.4662 37.1474C59.0999 36.6137 59.181 35.6675 58.6474 35.0338L57.5 36L56.3526 36.9662ZM55 11H53.5V15.5H55H56.5V11H55ZM55 15.5V14H19V15.5V17H55V15.5ZM19 15.5H20.5V11H19H17.5V15.5H19ZM6 11H4.5V22.5H6H7.5V11H6ZM68 11H66.5V76H68H69.5V11H68ZM68 81.5H66.5V92.5H68H69.5V81.5H68ZM68 92.5V91H6V92.5V94H68V92.5ZM6 92.5H7.5V28H6H4.5V92.5H6ZM13.5 44.5L14.5821 45.5388L20.5821 39.2888L19.5 38.25L18.4179 37.2112L12.4179 43.4612L13.5 44.5ZM19.5 38.25L20.5821 39.2888L26.5821 33.0388L25.5 32L24.4179 30.9612L18.4179 37.2112L19.5 38.25ZM19.5 38.25L20.5821 37.2112L14.5821 30.9612L13.5 32L12.4179 33.0388L18.4179 39.2888L19.5 38.25ZM19.5 38.25L18.4179 39.2888L24.4179 45.5388L25.5 44.5L26.5821 43.4612L20.5821 37.2112L19.5 38.25ZM13.5 76L13.7529 77.4785C20.3594 76.3485 30.0595 72.4428 37.9235 64.3852C45.8312 56.2828 51.8176 44.0446 50.9984 26.4303L49.5 26.5L48.0016 26.5697C48.7823 43.3554 43.1022 54.7838 35.7765 62.2898C28.4072 69.8406 19.3073 73.4849 13.2471 74.5215L13.5 76ZM49.5 26.5L48.3526 25.5338L40.3526 35.0338L41.5 36L42.6474 36.9662L50.6474 27.4662L49.5 26.5ZM49.5 26.5L48.3526 27.4662L56.3526 36.9662L57.5 36L58.6474 35.0338L50.6474 25.5338L49.5 26.5ZM54.5 79.5V78C52.0147 78 50 75.9853 50 73.5H48.5H47C47 77.6421 50.3579 81 54.5 81V79.5ZM48.5 73.5H50C50 71.0147 52.0147 69 54.5 69V67.5V66C50.3579 66 47 69.3579 47 73.5H48.5ZM54.5 79.5V81C55.6361 81 57.251 80.6054 58.6057 79.435C60.0146 78.2177 61 76.2837 61 73.5H59.5H58C58 75.5163 57.3187 76.5823 56.6443 77.165C55.9156 77.7946 55.0306 78 54.5 78V79.5ZM59.5 73.5H61C61 70.7163 60.0146 68.7823 58.6057 67.565C57.251 66.3946 55.6361 66 54.5 66V67.5V69C55.0306 69 55.9156 69.2054 56.6443 69.835C57.3187 70.4177 58 71.4837 58 73.5H59.5ZM0 11V8C-1.65685 8 -3 9.34315 -3 11H0ZM0 103H-3C-3 104.657 -1.65685 106 0 106L0 103ZM74.5 103V106C76.1569 106 77.5 104.657 77.5 103H74.5ZM74.5 11H77.5C77.5 9.34315 76.1569 8 74.5 8V11ZM55 11H52C52 12.6569 53.3431 14 55 14V11ZM19 11V14C20.6569 14 22 12.6569 22 11H19ZM19 5.5V2.5C17.3431 2.5 16 3.84315 16 5.5H19ZM31 0V-3C30.1571 -3 29.3531 -2.64542 28.7847 -2.02302C28.2163 -1.40061 27.936 -0.567814 28.0123 0.271606L31 0ZM43 3C44.6569 3 46 1.65685 46 0C46 -1.65685 44.6569 -3 43 -3V0V3ZM43 5.5L40.0123 5.77161C40.1528 7.31685 41.4484 8.5 43 8.5V5.5ZM55 5.5H58C58 3.84315 56.6569 2.5 55 2.5V5.5ZM0 11H-3V103H0H3V11H0ZM74.5 103H77.5V11H74.5H71.5V103H74.5ZM19 5.5V8.5H31V5.5V2.5H19V5.5ZM31 5.5V8.5C32.3355 8.5 33.1478 7.69043 33.4785 7.24397C33.7953 6.81622 33.9345 6.40035 33.9919 6.21164C34.1173 5.79924 34.1607 5.39568 34.1813 5.15345C34.2276 4.61079 34.2268 3.96097 34.2115 3.36116C34.1801 2.1258 34.0742 0.680131 33.9877 -0.271606L31 0L28.0123 0.271606C28.0925 1.1532 28.1866 2.45754 28.2135 3.51384C28.2274 4.05987 28.2203 4.4413 28.203 4.64342C28.1919 4.77359 28.1892 4.67082 28.2514 4.4661C28.2772 4.38123 28.3806 4.04592 28.657 3.67278C28.9473 3.28093 29.7145 2.5 31 2.5V5.5ZM31 0V3H43V0V-3H31V0ZM43 0V-3C41.6645 -3 40.8522 -2.19044 40.5215 -1.74398C40.2047 -1.31622 40.0655 -0.900352 40.0081 -0.711639C39.8827 -0.29924 39.8393 0.104315 39.8187 0.346543C39.7724 0.889211 39.7732 1.53903 39.7885 2.13884C39.8199 3.3742 39.9258 4.81987 40.0123 5.77161L43 5.5L45.9877 5.22839C45.9075 4.3468 45.8134 3.04246 45.7865 1.98616C45.7726 1.44013 45.7797 1.05871 45.797 0.856582C45.8081 0.726414 45.8108 0.829188 45.7486 1.03391C45.7228 1.11878 45.6194 1.45408 45.343 1.82723C45.0527 2.21908 44.2855 3 43 3V0ZM43 5.5V8.5H55V5.5V2.5H43V5.5ZM55 5.5H52V11H55H58V5.5H55ZM19 11V8H6V11V14H19V11ZM6 11V8H0V11V14H6V11ZM19 11H22V5.5H19H16V11H19ZM74.5 11V8H68V11V14H74.5V11ZM68 11V8H55V11V14H68V11ZM0 103V106H74.5V103V100H0V103Z" fill="black" mask="url(#path-1-inside-1_51_35)"/>
</svg>
