<svg width="93" height="106" viewBox="0 0 93 106" fill="none" xmlns="http://www.w3.org/2000/svg">
<path d="M90.5104 59.5H89.0104V59.5375L89.0122 59.5749L90.5104 59.5ZM46.0104 104L46.1316 102.505L46.0711 102.5H46.0104V104ZM1.51037 59.5H3.01037V59.4752L3.00955 59.4504L1.51037 59.5ZM36.0104 11.5H34.5104C34.5104 12.3284 35.1819 13 36.0104 13V11.5ZM36.0104 1.5V0C35.1819 0 34.5104 0.671573 34.5104 1.5L36.0104 1.5ZM55.5104 1.5H57.0104C57.0104 0.671573 56.3388 0 55.5104 0V1.5ZM55.5104 11.5V13C56.3388 13 57.0104 12.3284 57.0104 11.5H55.5104ZM71.5105 18L70.4498 16.9393C70.1544 17.2348 69.9956 17.6401 70.0116 18.0576C70.0276 18.4751 70.2171 18.867 70.5343 19.1389L71.5105 18ZM76.5105 13L77.4277 11.8131C76.8305 11.3516 75.9835 11.4057 75.4498 11.9393L76.5105 13ZM87.5104 21.5L88.6713 22.4499C88.9278 22.1364 89.0466 21.7324 89.0007 21.33C88.9548 20.9275 88.7481 20.5608 88.4275 20.3131L87.5104 21.5ZM83.0104 27L82.1385 28.2206C82.7816 28.68 83.6708 28.5615 84.1713 27.9499L83.0104 27ZM17.0105 20.5L16.1386 19.2794C16.1165 19.2952 16.0947 19.3117 16.0735 19.3287L17.0105 20.5ZM20.5104 18L21.3822 19.2206C21.7198 18.9794 21.9425 18.6093 21.9972 18.198C22.052 17.7868 21.934 17.3712 21.6713 17.0502L20.5104 18ZM16.0105 12.5L17.1714 11.5502C16.6549 10.9188 15.7285 10.816 15.086 11.3187L16.0105 12.5ZM4.51037 21.5L3.58591 20.3187C3.26818 20.5674 3.06402 20.9336 3.01952 21.3346C2.97502 21.7356 3.09395 22.1376 3.34943 22.4499L4.51037 21.5ZM9.01037 27L7.84943 27.9499C8.10283 28.2596 8.46947 28.4552 8.86782 28.4932C9.26617 28.5312 9.66321 28.4085 9.97062 28.1524L9.01037 27ZM12.0105 24.5L11.0735 23.3287C11.0657 23.3349 11.0579 23.3413 11.0502 23.3476L12.0105 24.5ZM67.2708 49.7929C67.9849 49.373 68.2233 48.4536 67.8033 47.7395C67.3833 47.0255 66.464 46.7871 65.7499 47.2071L66.5104 48.5L67.2708 49.7929ZM44.5104 32C44.5104 32.8284 45.1819 33.5 46.0104 33.5C46.8388 33.5 47.5104 32.8284 47.5104 32H46.0104H44.5104ZM47.5104 88C47.5104 87.1716 46.8388 86.5 46.0104 86.5C45.1819 86.5 44.5104 87.1716 44.5104 88H46.0104H47.5104ZM68.9866 80.8611C68.3576 80.322 67.4106 80.3948 66.8715 81.0238C66.3324 81.6528 66.4052 82.5998 67.0342 83.1389L68.0104 82L68.9866 80.8611ZM73.5104 58.5C72.6819 58.5 72.0104 59.1716 72.0104 60C72.0104 60.8284 72.6819 61.5 73.5104 61.5V60V58.5ZM18.5104 61.5C19.3388 61.5 20.0104 60.8284 20.0104 60C20.0104 59.1716 19.3388 58.5 18.5104 58.5V60V61.5ZM24.9866 83.1389C25.6155 82.5998 25.6884 81.6528 25.1493 81.0238C24.6101 80.3948 23.6632 80.322 23.0342 80.8611L24.0104 82L24.9866 83.1389ZM66.9497 37.4393C66.3639 38.0251 66.3639 38.9749 66.9497 39.5607C67.5355 40.1464 68.4852 40.1464 69.071 39.5607L68.0104 38.5L66.9497 37.4393ZM23.0342 39.1389C23.6632 39.678 24.6101 39.6052 25.1493 38.9762C25.6884 38.3472 25.6155 37.4002 24.9866 36.8611L24.0104 38L23.0342 39.1389ZM81.1332 88.9946C81.6825 88.3744 81.6251 87.4264 81.0049 86.8771C80.3848 86.3278 79.4368 86.3853 78.8875 87.0054L80.0104 88L81.1332 88.9946ZM82.2623 82.668C81.8028 83.3572 81.989 84.2885 82.6783 84.7481C83.3676 85.2076 84.2989 85.0213 84.7584 84.332L83.5104 83.5L82.2623 82.668ZM6.62395 35.7236C6.19517 36.4324 6.42218 37.3547 7.13101 37.7834C7.83984 38.2122 8.76205 37.9852 9.19084 37.2764L7.90739 36.5L6.62395 35.7236ZM6.39512 42.0769C6.71374 41.3122 6.35211 40.434 5.58741 40.1154C4.8227 39.7968 3.94449 40.1584 3.62588 40.9231L5.0105 41.5L6.39512 42.0769ZM46.0104 104V102.5C22.2621 102.5 3.01037 83.2482 3.01037 59.5H1.51037H0.0103706C0.0103706 84.9051 20.6053 105.5 46.0104 105.5V104ZM46.0104 15V16.5C69.7586 16.5 89.0104 35.7518 89.0104 59.5H90.5104H92.0104C92.0104 34.0949 71.4155 13.5 46.0104 13.5V15ZM81.5104 60H80.0104C80.0104 79.0538 64.5642 94.5 45.5104 94.5V96V97.5C66.2211 97.5 83.0104 80.7107 83.0104 60H81.5104ZM45.5104 96V94.5C26.4566 94.5 11.0104 79.0538 11.0104 60H9.51037H8.01037C8.01037 80.7107 24.7997 97.5 45.5104 97.5V96ZM9.51037 60H11.0104C11.0104 40.9462 26.4566 25.5 45.5104 25.5V24V22.5C24.7997 22.5 8.01037 39.2893 8.01037 60H9.51037ZM45.5104 24V25.5C64.5642 25.5 80.0104 40.9462 80.0104 60H81.5104H83.0104C83.0104 39.2893 66.2211 22.5 45.5104 22.5V24ZM54.5104 59.5H53.0104C53.0104 63.366 49.8764 66.5 46.0104 66.5V68V69.5C51.5332 69.5 56.0104 65.0228 56.0104 59.5H54.5104ZM46.0104 68V66.5C42.1444 66.5 39.0104 63.366 39.0104 59.5H37.5104H36.0104C36.0104 65.0228 40.4875 69.5 46.0104 69.5V68ZM37.5104 59.5H39.0104C39.0104 55.634 42.1444 52.5 46.0104 52.5V51V49.5C40.4875 49.5 36.0104 53.9772 36.0104 59.5H37.5104ZM46.0104 51V52.5C49.8764 52.5 53.0104 55.634 53.0104 59.5H54.5104H56.0104C56.0104 53.9772 51.5332 49.5 46.0104 49.5V51ZM41.5104 15.2247H43.0104V11.5H41.5104H40.0104V15.2247H41.5104ZM41.5104 11.5V10H36.0104V11.5V13H41.5104V11.5ZM36.0104 11.5H37.5104V1.5H36.0104H34.5104V11.5H36.0104ZM36.0104 1.5V3H55.5104V1.5V0H36.0104V1.5ZM55.5104 1.5H54.0104V11.5H55.5104H57.0104V1.5H55.5104ZM55.5104 11.5V10H50.5104V11.5V13H55.5104V11.5ZM50.5104 11.5H49.0104V15.2247H50.5104H52.0104V11.5H50.5104ZM72.8473 24L74.064 24.8773L76.2272 21.8773L75.0105 21L73.7938 20.1227L71.6306 23.1227L72.8473 24ZM75.0105 21L75.9867 19.8611L72.4867 16.8611L71.5105 18L70.5343 19.1389L74.0343 22.1389L75.0105 21ZM71.5105 18L72.5712 19.0607L77.5712 14.0607L76.5105 13L75.4498 11.9393L70.4498 16.9393L71.5105 18ZM76.5105 13L75.5933 14.1869L86.5932 22.6869L87.5104 21.5L88.4275 20.3131L77.4277 11.8131L76.5105 13ZM87.5104 21.5L86.3494 20.5501L81.8494 26.0501L83.0104 27L84.1713 27.9499L88.6713 22.4499L87.5104 21.5ZM83.0104 27L83.8822 25.7794L80.3822 23.2794L79.5104 24.5L78.6385 25.7206L82.1385 28.2206L83.0104 27ZM79.5104 24.5L78.3725 23.5227L75.7958 26.5227L76.9337 27.5L78.0716 28.4773L80.6483 25.4773L79.5104 24.5ZM19.1734 24L20.4495 23.2114L18.2865 19.7114L17.0105 20.5L15.7345 21.2886L17.8974 24.7886L19.1734 24ZM17.0105 20.5L17.8824 21.7206L21.3822 19.2206L20.5104 18L19.6385 16.7794L16.1386 19.2794L17.0105 20.5ZM20.5104 18L21.6713 17.0502L17.1714 11.5502L16.0105 12.5L14.8495 13.4498L19.3494 18.9498L20.5104 18ZM16.0105 12.5L15.086 11.3187L3.58591 20.3187L4.51037 21.5L5.43483 22.6813L16.935 13.6813L16.0105 12.5ZM4.51037 21.5L3.34943 22.4499L7.84943 27.9499L9.01037 27L10.1713 26.0501L5.67131 20.5501L4.51037 21.5ZM9.01037 27L9.97062 28.1524L12.9708 25.6524L12.0105 24.5L11.0502 23.3476L8.05012 25.8476L9.01037 27ZM12.0105 24.5L10.9633 25.5739L14.0398 28.5739L15.087 27.5L16.1342 26.4261L13.0577 23.4261L12.0105 24.5ZM53.7586 56L54.5191 57.2929L67.2708 49.7929L66.5104 48.5L65.7499 47.2071L52.9982 54.7071L53.7586 56ZM46.0104 24.5H44.5104V32H46.0104H47.5104V24.5H46.0104ZM46.0104 96H47.5104V88H46.0104H44.5104V96H46.0104ZM68.0104 82L67.0342 83.1389L70.5342 86.1389L71.5104 85L72.4866 83.8611L68.9866 80.8611L68.0104 82ZM73.5104 60V61.5H81.5104V60V58.5H73.5104V60ZM9.51037 60V61.5H18.5104V60V58.5H9.51037V60ZM24.0104 82L23.0342 80.8611L19.5342 83.8611L20.5104 85L21.4866 86.1389L24.9866 83.1389L24.0104 82ZM68.0104 38.5L69.071 39.5607L72.571 36.0607L71.5104 35L70.4497 33.9393L66.9497 37.4393L68.0104 38.5ZM24.0104 38L24.9866 36.8611L21.4866 33.8611L20.5104 35L19.5342 36.1389L23.0342 39.1389L24.0104 38ZM12.0105 24.5L12.9475 25.6713L17.9475 21.6713L17.0105 20.5L16.0735 19.3287L11.0735 23.3287L12.0105 24.5ZM41.5104 11.5V13H50.5104V11.5V10H41.5104V11.5ZM75.0105 21L74.0896 22.184L78.5894 25.684L79.5104 24.5L80.4313 23.316L75.9314 19.816L75.0105 21ZM46.0104 104L45.8892 105.495C52.4705 106.029 68.3851 103.388 81.1332 88.9946L80.0104 88L78.8875 87.0054C66.8357 100.612 51.8836 102.971 46.1316 102.505L46.0104 104ZM90.5104 59.5L89.0122 59.5749C89.4903 69.1361 85.1626 78.3176 82.2623 82.668L83.5104 83.5L84.7584 84.332C87.8582 79.6824 92.5304 69.8639 92.0085 59.4251L90.5104 59.5ZM7.90739 36.5L9.19084 37.2764C16.7257 24.8205 30.3971 16.5 46.0104 16.5V15V13.5C29.3041 13.5 14.6796 22.4068 6.62395 35.7236L7.90739 36.5ZM1.51037 59.5L3.00955 59.4504C2.884 55.6557 3.98132 47.8702 6.39512 42.0769L5.0105 41.5L3.62588 40.9231C1.03984 47.1298 -0.127942 55.3443 0.0111909 59.5496L1.51037 59.5Z" fill="black"/>
</svg>
