<svg width="61" height="61" viewBox="0 0 61 61" fill="none" xmlns="http://www.w3.org/2000/svg">
<path d="M9.89598 23.6516C11.3303 22.2228 13.1823 21.0608 15.4011 20.1656C17.5691 19.2956 19.9902 18.6542 22.5628 18.2411C25.1353 17.8533 27.7836 17.643 30.4694 17.6229C33.1679 17.6407 35.8153 17.8612 38.361 18.2589C40.97 18.6947 43.3632 19.3454 45.4519 20.1983C47.6799 21.1147 49.5273 22.3092 50.9561 23.7435C51.9424 24.7336 52.7004 25.8499 53.2301 27.0672C53.7725 28.3225 54.0358 29.7292 53.9822 31.2241C53.9658 33.1624 53.3293 34.7575 52.1361 35.9461C51.6411 36.4392 51.0195 36.8307 50.3856 37.0576C49.663 37.3222 48.9027 37.3968 48.1429 37.2433L41.0632 36.0261C40.43 35.9235 39.8728 35.7704 39.3792 35.5541C38.8348 35.3376 38.3666 35.0453 37.9999 34.6772C37.5194 34.1949 37.1912 33.5861 37.0152 32.8763C36.8642 32.3439 36.7895 31.685 36.7909 30.9502L36.7563 29.1891C36.7057 29.1637 36.6677 29.151 36.6297 29.1382C36.2118 29.0234 35.452 28.8699 34.1853 28.7661C32.8552 28.6749 31.6265 28.6091 30.4483 28.5942C28.966 28.604 27.7623 28.6397 26.698 28.739C25.3675 28.8504 24.5944 29.0136 24.176 29.1522L24.1382 29.0634L24.122 30.9004C24.1205 31.6859 24.0305 32.3572 23.852 32.9143C23.5838 34.0413 22.7711 35.0026 21.5159 35.5196C21.0468 35.7087 20.5017 35.8724 19.8554 35.9851L12.657 37.1875C11.8713 37.338 11.1239 37.2732 10.4403 36.9932C9.76945 36.7005 9.23804 36.3447 8.79548 35.9004C8.18855 35.2912 7.72124 34.5428 7.41879 33.706C7.11635 32.8693 6.95324 32.0455 6.91692 31.1713C6.84384 29.6509 7.06183 28.2957 7.60907 27.0172C8.13087 25.7893 8.8932 24.6505 9.89598 23.6516ZM50.2394 34.0421C50.9376 33.3466 51.2815 32.3971 51.2965 31.1682C51.3367 30.0408 51.1486 29.0395 50.7576 28.1393C50.3666 27.2137 49.7981 26.3891 49.0521 25.6402C47.8761 24.4597 46.3198 23.4559 44.4462 22.6921C42.5347 21.9156 40.3441 21.3159 37.9378 20.9312C35.5314 20.5465 33.0233 20.339 30.4769 20.3214C27.9557 20.3292 25.4216 20.527 22.9884 20.9024C20.6186 21.2652 18.4004 21.8564 16.4224 22.6634C13.3288 23.899 11.0829 25.7063 10.1028 28.0735C9.72099 28.9849 9.55442 29.9601 9.61563 31.0625C9.6398 31.6706 9.75272 32.2409 9.96694 32.8368C10.1307 33.3059 10.3833 33.7118 10.7121 34.0418C10.9144 34.2449 11.1548 34.4101 11.4839 34.5374C11.5979 34.5756 11.8131 34.6394 12.2187 34.5641L19.417 33.3618C19.8479 33.2866 20.2028 33.1859 20.5071 33.0598C20.9002 32.8959 21.1282 32.8963 21.2943 32.1999C21.4217 31.82 21.4605 31.402 21.4615 30.8953L21.4778 28.9823C21.4924 28.0068 22.1402 27.1339 22.9391 26.768L23.4335 26.579C24.2321 26.3398 25.2713 26.1644 26.5131 26.0655C27.6408 25.979 28.9078 25.9307 30.4914 25.9211C31.7456 25.9362 33.0378 25.9894 34.4312 26.0934C35.7232 26.1973 36.7491 26.3639 37.5088 26.5934L38.0404 26.8225C38.4074 27.0386 38.5972 27.1783 38.7742 27.356C39.2294 27.813 39.469 28.3836 39.4678 29.017L39.5021 30.9554C39.5011 31.4622 39.5509 31.893 39.6389 32.2353C39.7018 32.5014 39.8028 32.679 39.9292 32.8059C40.0304 32.9075 40.2202 33.0219 40.4354 33.111C40.7266 33.2256 41.0938 33.3149 41.5118 33.3791L48.604 34.609C48.908 34.6603 49.1868 34.6355 49.4657 34.5347C49.7573 34.4212 50.0236 34.257 50.2394 34.0421ZM24.1255 29.0507L23.4688 27.9853L24.0112 29.2152C24.0873 29.1647 24.1254 29.1014 24.1255 29.0507Z" fill="white"/>
</svg>
