<svg width="63" height="64" viewBox="0 0 63 64" fill="none" xmlns="http://www.w3.org/2000/svg">
<path d="M31.5 0C48.897 1.03555e-06 63 14.1677 63 31.6445C63 49.1213 48.897 63.2891 31.5 63.2891C14.103 63.2891 0 49.1213 0 31.6445C0 14.1677 14.103 0 31.5 0ZM47.1826 20.71C46.9527 18.7695 44.6103 19.1964 43.3066 19.6328C36.6061 22.1942 29.9726 24.9454 23.3652 27.7451C19.7646 29.3476 15.9266 30.9424 12.4268 32.8145L11.7314 33.1924C9.93726 34.512 12.9866 35.3845 15.0674 36.25C17.3881 36.9664 20.0943 38.0632 22.416 36.7793C26.9614 34.1563 31.1673 30.9894 35.4785 28.0049C36.2634 27.5004 38.6416 25.8552 37.8369 27.8076C34.8523 31.0865 31.5125 33.7358 28.3633 36.8535C27.259 37.7548 26.1125 39.5669 27.3486 40.8291C31.1234 43.4838 34.9762 46.054 38.7998 48.6484C40.3907 49.9244 42.8775 48.8922 43.2275 46.8984C44.2428 40.9121 45.2839 34.9261 46.1846 28.9199C46.5394 26.1887 47.0568 23.4572 47.1826 20.71Z" fill="#3888FF"/>
</svg>
