<svg width="64" height="64" viewBox="0 0 64 64" fill="none" xmlns="http://www.w3.org/2000/svg">
<path d="M41.1699 0C58.8206 0 63 4.19901 63 21.9307V41.3594C63 59.091 58.8206 63.2891 41.1699 63.2891H21.8301C4.17941 63.2891 0 59.091 0 41.3594V21.9307C0 4.19901 4.17941 0 21.8301 0H41.1699ZM12.1377 20.0537C10.8041 20.0537 10.5811 20.6788 10.5811 21.3486C10.5811 22.5546 12.1372 28.6294 17.8281 36.6689C21.6072 42.1625 26.9869 45.1103 31.833 45.1104C34.7674 45.1104 35.123 44.4398 35.123 43.3232V39.1699C35.123 37.8302 35.3899 37.6065 36.3232 37.6064C36.9901 37.6064 38.1913 37.9644 40.9033 40.5996C44.0149 43.7256 44.5487 45.155 46.2822 45.1553H50.8623C52.196 45.1552 52.8186 44.4846 52.4629 43.1895C52.0627 41.8942 50.5509 40.0183 48.5947 37.7852C47.5277 36.5346 45.9266 35.1504 45.4375 34.4805C44.7707 33.5873 44.9486 33.2295 45.4375 32.4258C45.4131 32.3976 50.9959 24.4713 51.5732 21.7959C51.8845 20.8133 51.5735 20.0987 50.1953 20.0986H45.6162C44.4603 20.0986 43.9265 20.7236 43.6152 21.3936C43.6152 21.3936 41.2587 27.1103 37.9688 30.8174C36.902 31.8891 36.4128 32.2469 35.835 32.2471C35.5238 32.2471 35.1231 31.8897 35.123 30.9072V21.751C35.123 20.5897 34.7672 20.0537 33.7891 20.0537H26.5869C25.8756 20.0537 25.4307 20.59 25.4307 21.126C25.431 22.2423 27.0761 22.5106 27.2539 25.6367V32.4258C27.2539 33.8994 26.987 34.1679 26.4092 34.168C24.8531 34.168 21.0741 28.4055 18.8066 21.8398C18.3621 20.5448 17.9166 20.0537 16.7607 20.0537H12.1377Z" fill="#0000FF"/>
</svg>
