<svg width="75" height="103" viewBox="0 0 75 103" fill="none" xmlns="http://www.w3.org/2000/svg">
<path d="M41.2803 1.5C41.2807 1.69643 41.2829 1.89829 41.2881 2.10059C41.3184 3.29115 41.4209 4.70154 41.5059 5.63574C41.5761 6.40836 42.2242 7 43 7H53.5V11C53.5 11.8284 54.1716 12.5 55 12.5H73V101.5H1.5V12.5H19C19.8284 12.5 20.5 11.8284 20.5 11V7H31C31.6802 7 32.0979 6.58846 32.2734 6.35156C32.4419 6.12414 32.52 5.89575 32.5566 5.77539C32.6351 5.51745 32.6682 5.24052 32.6865 5.02637C32.7256 4.56886 32.7268 3.98575 32.7119 3.39941C32.6965 2.79265 32.6613 2.1288 32.6201 1.5H41.2803Z" stroke="black" stroke-width="3" stroke-miterlimit="1.00309" stroke-linecap="round" stroke-linejoin="round"/>
</svg>
