<svg width="98" height="105" viewBox="0 0 98 105" fill="none" xmlns="http://www.w3.org/2000/svg">
<path d="M48.0074 50V42M48.0074 50C50.8407 51.1667 56.9073 54.2 58.5073 57M48.0074 50C41.2075 53.2 38.8407 56 38.5073 57M48.0074 42C46.174 41.0378 42.4073 38.702 42.0073 37.0567M48.0074 42C49.6685 41.3711 53.4423 39.502 55.249 37.0567M42.0073 37.0567C44.2236 36.3956 46.3066 36.0739 48.0074 36C50.0355 36 52.5734 36.3022 55.249 37.0567M42.0073 37.0567C37.5223 38.3945 32.4912 41.1222 28.9772 46M55.249 37.0567C59.4818 38.2503 64.0591 40.5758 67.5073 44.6276M58.5073 57C58.674 59.1667 58.1073 64.6 54.5073 69M58.5073 57L64.5073 55.5M54.5073 69H42.0073M54.5073 69C55.5073 70 57.7073 72.5 58.5073 74.5M42.0073 69C40.674 66.6667 38.1073 61 38.5073 57M42.0073 69C40.8407 70.1667 38.5073 72.9 38.5073 74.5M38.5073 57L33.0073 55.5M64.5073 55.5C64.3407 53.0662 64.7073 47.4844 67.5073 44.6276M64.5073 55.5C64.8271 56.5 66.9706 59.3 72.987 62.5M67.5073 44.6276C70.6564 48.3279 72.8638 53.4678 73.0073 60.5C73.0213 61.1853 73.0142 61.8518 72.987 62.5M72.987 62.5C72.7757 67.5326 71.3557 71.4605 69.2412 74.5M58.5073 74.5C57.0073 76.0895 53.9073 80.1418 53.5073 83.6343M58.5073 74.5C61.1633 73.8333 67.0283 72.9 69.2412 74.5M69.2412 74.5C65.2999 80.1655 58.9453 82.7439 53.5073 83.6343M53.5073 83.6343C51.4916 83.9644 49.6017 84.0625 48.0074 84C46.2913 84 44.2116 83.7837 42.0073 83.2584M38.5073 74.5C39.674 76.5056 42.0073 81.0651 42.0073 83.2584M38.5073 74.5C36.3761 74.1667 31.3551 73.7 28.3206 74.5M42.0073 83.2584C37.2163 82.1165 31.8365 79.5147 28.3206 74.5M28.3206 74.5C26.1881 71.4585 24.7413 67.5293 24.5275 62.5M33.0073 55.5C32.654 53.3333 31.3532 48.4 28.9772 46M33.0073 55.5C31.1874 57.8333 26.9436 62.5 24.5275 62.5M28.9772 46C26.4002 49.5771 24.6391 54.3105 24.5074 60.5C24.4928 61.1852 24.4999 61.8518 24.5275 62.5M9.5 9H5C3.83333 9 1.5 9.7 1.5 12.5V26.5M9.5 9C9.5 6.5 10.4 1.5 14 1.5C17.6 1.5 18.1667 6.5 18 9M9.5 9V12.5C9.66667 14 10.8 17 14 17C17.2 17 18 14 18 12.5V9M88.5 9H92.5C95.3 9 96.3333 11.3333 96.5 12.5V26.5M88.5 9C88.8333 6.5 88.5 1.5 84.5 1.5C80.5 1.5 79.8333 6.5 80 9M88.5 9V12.5C88.5 14 87.7 17 84.5 17C81.3 17 80.1667 14 80 12.5V9M80 9H70.5M70.5 9C70.8333 6.5 70.6 1.5 67 1.5C62.5 1.5 62.5 5.5 62.5 9M70.5 9V12.5C70.5 14 69.8 17 67 17C64.2 17 62.8333 14 62.5 12.5V9M62.5 9H53M53 9C53.3333 6.5 53 1.5 49 1.5C45 1.5 44.6667 6.5 45 9M53 9V12.5C53 14 52.2 17 49 17C45.8 17 45 14 45 12.5V9M45 9H35.5M35.5 9C35.8333 6.5 35.5 1.5 31.5 1.5C27.5 1.5 26.8333 6.5 27 9M35.5 9V12.5C35.1667 14 33.9 17 31.5 17C29.1 17 27.5 14 27 12.5V9M27 9H18M1.5 26.5V101C1.66667 101.833 2.6 103.5 5 103.5H92.5C93.8333 103.5 96.5 103 96.5 101V26.5M1.5 26.5H10.5M96.5 26.5H87.5M10.5 26.5V58.5M10.5 26.5H87.5M87.5 26.5V58.5M87.5 65V92C87.3333 92.6667 86.6 94.1 85 94.5H12.5C11.8333 94.5 10.5 94 10.5 92V65" stroke="black" stroke-width="3" stroke-linecap="round" stroke-linejoin="round"/>
</svg>
