<svg width="105" height="88" viewBox="0 0 105 88" fill="none" xmlns="http://www.w3.org/2000/svg">
<path d="M1.5 41V75C2.5 75.6667 5 76.6 7 75V10C7.16667 8.83333 8 6.99997 10.5 7H95C96 7.16667 98 8 98 10V75C98.8333 75.6667 101.1 76.6 103.5 75V41M1.5 35.5V5C1.66667 3.83333 2.8 1.5 6 1.5H99.5C100.833 1.66667 103.5 2.8 103.5 6V35.5M7 67.5L14 62M14 62V55M14 62H20.5M14 13.5L8 8M14 13.5V20.5M14 13.5H21.5M90.5 13.5L96.5 7.5M90.5 13.5H83.5M90.5 13.5V20.5M90.5 62L98 68M90.5 62V55.0625M90.5 62H83M31.5 62C30.6667 70 33.7 86 52.5 86C54.9325 86 57.0898 85.7321 59 85.2484M31.5 62H29M31.5 62C31.9325 59.8377 33.0061 56.874 34.8992 54M14 27.5L17.6563 24.0875M14 27.5V34.25M14 27.5V20.5M17.6563 24.0875L25.1207 17.1207M17.6563 24.0875L24.3474 30.6526M17.6563 24.0875L14 20.5M25.1207 17.1207L29 13.5M25.1207 17.1207L31.5 23.5M25.1207 17.1207L21.5 13.5M29 13.5H21.5M29 13.5H35.25M41.5 13.5L38.3506 16.6494M41.5 13.5H48.5M41.5 13.5H35.25M38.3506 16.6494L31.5 23.5M38.3506 16.6494L45.2961 23.7039M38.3506 16.6494L35.25 13.5M31.5 23.5L24.3474 30.6526M31.5 23.5L38.5 30.5M24.3474 30.6526L17.4704 37.5296M24.3474 30.6526L31.414 37.586M17.4704 37.5296L14 41M17.4704 37.5296L24.6683 44.3317M17.4704 37.5296L14 34.25M14 41V48M14 41V34.25M14 55L17.6207 51.3793M14 55V48M17.6207 51.3793L24.6683 44.3317M17.6207 51.3793L24.6034 57.8966M17.6207 51.3793L14 48M24.6683 44.3317L31.414 37.586M24.6683 44.3317L31.6091 50.8909M31.414 37.586L38.5 30.5M31.414 37.586L38.2281 44.2719M38.5 30.5L45.2961 23.7039M38.5 30.5L45.25 37.25M45.2961 23.7039L52.0183 16.9817M45.2961 23.7039L51.9935 30.5065M52.0183 16.9817L55.5 13.5M52.0183 16.9817L58.8037 23.6963M52.0183 16.9817L48.5 13.5M55.5 13.5H62.25M55.5 13.5H48.5M20.5 62L24.6034 57.8966M20.5 62H29M24.6034 57.8966L31.6091 50.8909M24.6034 57.8966L29 62M31.6091 50.8909L38.2281 44.2719M31.6091 50.8909L34.8992 54M38.2281 44.2719L45.25 37.25M38.2281 44.2719L41.5 47.4821M45.25 37.25L51.9935 30.5065M45.25 37.25L52.5 44.5M51.9935 30.5065L58.8037 23.6963M51.9935 30.5065L59.187 37.813M58.8037 23.6963L65.6589 16.8411M58.8037 23.6963L66.0916 30.9084M65.6589 16.8411L69 13.5M65.6589 16.8411L72.9818 24.0182M65.6589 16.8411L62.25 13.5M69 13.5H77.5M69 13.5H62.25M34.8992 54C36.4875 51.5887 38.6527 49.2406 41.5 47.4821M41.5 47.4821C42.5687 46.8221 43.7335 46.2451 45 45.7791M52.5 44.5L59.187 37.813M52.5 44.5C49.6777 44.5 47.1872 44.9741 45 45.7791M52.5 44.5C55.3223 44.5 57.7857 44.9741 59.9269 45.7791M83.5 13.5L80.4023 16.5977M83.5 13.5H77.5M59.187 37.813L66.0916 30.9084M59.187 37.813L66.0484 44.7822M66.0916 30.9084L72.9818 24.0182M66.0916 30.9084L73.0676 37.8116M72.9818 24.0182L80.4023 16.5977M72.9818 24.0182L80.0155 30.9118M80.4023 16.5977L87.1632 23.8136M80.4023 16.5977L77.5 13.5M90.5 20.5L87.1632 23.8136M90.5 20.5V27.375M63.3296 47.4821L66.0484 44.7822M63.3296 47.4821C62.2986 46.8221 61.1668 46.2451 59.9269 45.7791M63.3296 47.4821C65.5019 48.8728 67.2264 50.6322 68.5703 52.5M66.0484 44.7822L73.0676 37.8116M66.0484 44.7822L72.444 51.2782M73.0676 37.8116L80.0155 30.9118M73.0676 37.8116L79.7312 44.4058M80.0155 30.9118L87.1632 23.8136M80.0155 30.9118L86.8927 37.652M87.1632 23.8136L90.5 27.375M72.5 62C72.1911 59.8377 71.2868 56.874 69.5579 54M72.5 62H75.5M72.5 62C72.6528 63.0475 72.7449 64.2321 72.7476 65.5M69.5579 54L72.444 51.2782M69.5579 54C69.2545 53.4956 68.9257 52.994 68.5703 52.5M72.444 51.2782L79.7312 44.4058M72.444 51.2782L79.4253 58.3691M79.7312 44.4058L86.8927 37.652M79.7312 44.4058L86.8765 51.4767M86.8927 37.652L90.5 34.25M86.8927 37.652L90.5 41.1875M90.5 34.25V27.375M90.5 34.25V41.1875M75.5 62L79.4253 58.3691M75.5 62H83M79.4253 58.3691L86.8765 51.4767M79.4253 58.3691L83 62M86.8765 51.4767L90.5 48.125M86.8765 51.4767L90.5 55.0625M90.5 48.125V41.1875M90.5 48.125V55.0625M45 45.7791C46.6667 47.3527 50.5 50.7 52.5 51.5M52.5 51.5C53.8414 50.8458 57.2048 48.7858 59.9269 45.7791M52.5 51.5V57.5M52.5 57.5C51.1667 57.8333 47.8 59.2 45 62M52.5 57.5C55.7 58.3 58.7846 60.8333 59.9269 62M45 62L47.5 71M45 62L39 60M47.5 71H57.5M47.5 71L43.5 76.5M57.5 71L59.9269 62M57.5 71L61 76.5M59.9269 62L66 60M66 60C66 57.5 67.4265 54.5 68.5703 52.5M66 60C67.5 62.5 72.7505 65.1 72.7476 65.5M72.7476 65.5C72.7547 68.9135 72.1129 72.9306 70.2571 76.5M61 76.5C62.6714 76.1667 66.8629 75.7 70.2571 76.5M61 76.5C60.3333 78.1656 59 82.2472 59 85.2484M70.2571 76.5C68.2189 80.4205 64.716 83.8009 59 85.2484M43.5 76.5C44.5 78.3323 46.5 82.6472 46.5 85.2484M43.5 76.5C42 76 38 75.3 34 76.5M39 60C37.1667 61.8333 33.1 65.5 31.5 65.5M39 60C39 58.8333 38.5 55.6 36.5 52" stroke="black" stroke-width="3" stroke-linecap="round" stroke-linejoin="round"/>
</svg>
