<svg width="87" height="106" viewBox="0 0 87 106" fill="none" xmlns="http://www.w3.org/2000/svg">
<path d="M20.9544 67.5C8.12107 71.6667 -11.3456 83.6 13.4544 98M67 67.5C78.3333 71.3333 96.1543 82.4 76.9543 96C67.4543 100.833 44.1 109.7 18.5 100.5M43.954 84L17.4999 56C4.5 39.5 7.95398 1.5 43.954 1.5C47.9542 1.5 56.8543 2.3 62.4543 7.5M67 11.5C72.1667 15.6667 83.0816 32.5 73 51.5C71.1429 55 68.8 60 44 84M42.9544 24.5V16.5M42.9544 24.5C45.7877 25.6667 51.8543 28.7 53.4543 31.5M42.9544 24.5C36.1545 27.7 33.7877 30.5 33.4543 31.5M42.9544 16.5C41.1211 15.5378 37.3543 13.202 36.9543 11.5567M42.9544 16.5C44.6155 15.8711 48.3893 14.002 50.196 11.5567M36.9543 11.5567C39.1707 10.8956 41.2537 10.5739 42.9544 10.5C44.9825 10.5 47.5204 10.8022 50.196 11.5567M36.9543 11.5567C32.4693 12.8945 27.4383 15.6222 23.9243 20.5M50.196 11.5567C54.4288 12.7503 59.0061 15.0758 62.4543 19.1276M53.4543 31.5C53.621 33.6667 53.0543 39.1 49.4543 43.5M53.4543 31.5L59.4543 30M49.4543 43.5H36.9543M49.4543 43.5C50.4543 44.5 52.6543 47 53.4543 49M36.9543 43.5C35.621 41.1667 33.0543 35.5 33.4543 31.5M36.9543 43.5C35.7877 44.6667 33.4543 47.4 33.4543 49M33.4543 31.5L27.9543 30M59.4543 30C59.7877 27.2518 60.8543 21.2298 62.4543 19.1276M59.4543 30C61.2741 32.1667 65.5176 36.6 67.934 37M62.4543 19.1276C65.6034 22.8279 67.8108 27.9678 67.9543 35C67.9683 35.6853 67.9612 36.3518 67.934 37M67.934 37C67.7227 42.0326 66.3027 45.9605 64.1882 49M53.4543 49C56.1103 48.6667 61.9753 48.2 64.1882 49M53.4543 49C51.9543 50.5895 48.8543 54.6418 48.4543 58.1343M64.1882 49C60.2469 54.6655 53.8923 57.2439 48.4543 58.1343M48.4543 58.1343C46.4386 58.4644 44.5487 58.5625 42.9544 58.5C41.2383 58.5 39.1586 58.2837 36.9543 57.7584M33.4543 49C34.621 51.0056 36.9543 55.5651 36.9543 57.7584M33.4543 49C31.3298 48.5 26.3181 47.8 23.2676 49M36.9543 57.7584C32.1633 56.6165 26.7835 54.0147 23.2676 49M23.2676 49C21.1351 45.9585 19.6883 42.0293 19.4745 37M27.9543 30C27.4343 28.1667 25.9002 23.7 23.9243 20.5M27.9543 30C26.6344 31.6667 23.0906 35.4 19.4745 37M23.9243 20.5C21.3473 24.0771 19.5861 28.8105 19.4544 35C19.4398 35.6852 19.4469 36.3518 19.4745 37" stroke="black" stroke-width="3" stroke-linecap="round" stroke-linejoin="round"/>
</svg>
